<?xml version="1.0" standalone="no"?>
<!DOCTYPE svg PUBLIC "-//W3C//DTD SVG 20010904//EN"
 "http://www.w3.org/TR/2001/REC-SVG-20010904/DTD/svg10.dtd">
<svg version="1.0" xmlns="http://www.w3.org/2000/svg"
 width="600.000000pt" height="600.000000pt" viewBox="0 0 600.000000 600.000000"
 preserveAspectRatio="xMidYMid meet">
<metadata>
Created by potrace 1.14, written by Peter Selinger 2001-2017
</metadata>
<g transform="translate(0.000000,600.000000) scale(0.100000,-0.100000)"
fill="#000000" stroke="none">
<path d="M2930 4370 c0 -13 7 -20 20 -20 13 0 20 7 20 20 0 13 -7 20 -20 20
-13 0 -20 -7 -20 -20z"/>
<path d="M3110 4150 c0 -13 7 -20 20 -20 13 0 20 7 20 20 0 13 -7 20 -20 20
-13 0 -20 -7 -20 -20z"/>
<path d="M2440 4105 c0 -11 11 -15 40 -15 29 0 40 4 40 15 0 11 -11 15 -40 15
-29 0 -40 -4 -40 -15z"/>
<path d="M3520 4060 c0 -13 7 -20 20 -20 13 0 20 7 20 20 0 13 -7 20 -20 20
-13 0 -20 -7 -20 -20z"/>
<path d="M2344 4025 c-8 -20 4 -35 27 -35 14 0 19 7 19 25 0 18 -5 25 -20 25
-11 0 -23 -7 -26 -15z"/>
<path d="M2884 3935 c-8 -20 4 -35 27 -35 14 0 19 7 19 25 0 18 -5 25 -20 25
-11 0 -23 -7 -26 -15z"/>
<path d="M3156 3909 c-9 -47 -8 -49 19 -49 23 0 25 4 25 40 0 32 -4 40 -19 40
-13 0 -20 -10 -25 -31z"/>
<path d="M3520 3880 c0 -17 7 -20 40 -20 33 0 40 3 40 20 0 17 -7 20 -40 20
-33 0 -40 -3 -40 -20z"/>
<path d="M2440 3770 c0 -33 3 -40 20 -40 13 0 20 7 20 20 0 13 7 20 20 20 13
0 20 7 20 20 0 17 -7 20 -40 20 l-40 0 0 -40z"/>
<path d="M2710 3790 c0 -13 7 -20 20 -20 13 0 20 7 20 20 0 13 -7 20 -20 20
-13 0 -20 -7 -20 -20z"/>
<path d="M3610 3700 c0 -13 7 -20 20 -20 13 0 20 7 20 20 0 13 -7 20 -20 20
-13 0 -20 -7 -20 -20z"/>
<path d="M3920 3565 c0 -18 -5 -25 -19 -25 -15 0 -19 -11 -24 -67 -4 -38 -7
-110 -7 -160 0 -86 -1 -93 -20 -93 -19 0 -20 7 -20 159 l0 159 -33 6 c-18 3
-47 3 -64 0 -38 -8 -43 -27 -43 -170 0 -97 -1 -104 -20 -104 -18 0 -20 -7 -20
-85 0 -78 -2 -85 -20 -85 -19 0 -20 7 -20 135 0 128 1 135 20 135 11 0 20 7
20 15 0 8 -8 15 -19 15 -19 0 -31 39 -31 106 0 31 -1 32 -55 36 -30 3 -80 3
-110 0 -46 -4 -55 -8 -55 -23 0 -12 -7 -19 -19 -19 -13 0 -21 -8 -23 -22 -2
-15 -11 -24 -25 -26 -21 -3 -23 1 -23 42 0 39 -3 46 -20 46 -17 0 -20 -7 -20
-45 0 -38 3 -45 20 -45 18 0 20 -7 20 -65 0 -58 -2 -65 -20 -65 -19 0 -20 -7
-20 -128 0 -71 -3 -224 -7 -340 -6 -197 -7 -212 -25 -212 -17 0 -18 -21 -18
-515 l0 -515 109 0 109 0 6 31 c3 17 6 49 6 70 0 32 3 39 20 39 19 0 20 7 20
265 0 251 1 265 19 265 15 0 19 11 24 68 4 37 7 100 7 140 0 65 2 72 20 72 19
0 20 7 20 200 0 193 1 200 20 200 19 0 20 -7 20 -250 0 -243 -1 -250 -20 -250
-19 0 -20 -7 -20 -200 0 -188 -1 -200 -18 -200 -17 0 -20 -12 -25 -97 -4 -54
-7 -135 -7 -180 0 -82 0 -83 25 -83 18 0 25 5 25 20 0 15 7 20 25 20 23 0 25
3 25 50 0 43 3 50 20 50 15 0 20 -7 20 -25 0 -20 5 -25 25 -25 18 0 25 5 25
20 0 13 7 20 20 20 19 0 20 7 20 90 0 81 2 90 19 90 15 0 19 11 25 77 3 42 6
93 6 115 0 31 3 38 20 38 19 0 20 7 20 110 0 100 2 110 19 110 15 0 19 11 24
68 4 37 7 88 7 115 0 40 3 47 20 47 19 0 20 7 20 135 0 125 1 135 19 135 15 0
19 11 24 68 4 37 7 127 7 200 0 125 1 132 20 132 19 0 20 7 20 95 0 88 -1 95
-20 95 -13 0 -20 7 -20 20 0 15 -7 20 -25 20 -20 0 -25 -5 -25 -25z m-90 -605
c0 -83 -1 -90 -20 -90 -19 0 -20 7 -20 90 0 83 1 90 20 90 19 0 20 -7 20 -90z
m-50 -360 c0 -83 -1 -90 -20 -90 -19 0 -20 7 -20 90 0 83 1 90 20 90 19 0 20
-7 20 -90z m-40 -275 c0 -88 -1 -95 -20 -95 -19 0 -20 7 -20 95 0 88 1 95 20
95 19 0 20 -7 20 -95z m-50 -285 c0 -103 -1 -110 -20 -110 -19 0 -20 7 -20
110 0 103 1 110 20 110 19 0 20 -7 20 -110z"/>
<path d="M1986 3500 c-5 -31 -11 -40 -26 -40 -19 0 -20 -7 -20 -140 0 -130 1
-140 19 -140 17 0 19 -12 26 -135 6 -123 9 -135 26 -135 18 0 19 -9 19 -130 0
-120 1 -130 19 -130 15 0 19 -11 25 -77 3 -42 6 -93 6 -115 0 -31 3 -38 20
-38 19 0 20 -7 20 -110 0 -101 2 -110 19 -110 17 0 20 -11 26 -90 6 -79 9 -90
26 -90 17 0 19 -8 19 -90 0 -83 1 -90 20 -90 17 0 20 -7 20 -39 0 -67 11 -101
31 -101 12 0 19 -7 19 -20 0 -18 7 -20 64 -20 61 0 64 1 69 28 3 15 3 84 0
155 -6 115 -8 127 -25 127 -17 0 -18 11 -18 155 0 148 -1 155 -20 155 -18 0
-20 7 -20 53 0 30 -3 102 -7 160 -5 95 -8 107 -25 107 -17 0 -18 12 -18 180 0
170 -1 180 -19 180 -17 0 -19 13 -26 180 -7 167 -9 180 -26 180 -17 0 -19 8
-19 90 0 89 0 90 -25 90 -18 0 -25 5 -25 20 0 18 -7 20 -84 20 l-83 0 -7 -40z"/>
<path d="M2617 3470 c-3 -12 -14 -20 -26 -20 -21 0 -21 -2 -21 -290 0 -283 0
-290 20 -290 20 0 20 -7 20 -352 0 -194 3 -458 7 -585 6 -217 7 -233 25 -233
13 0 18 -7 18 -25 l0 -25 135 0 135 0 0 585 c0 578 0 585 -20 585 -19 0 -20 7
-20 143 0 78 -3 220 -7 315 -6 158 -8 172 -25 172 -11 0 -18 -7 -18 -20 0 -13
-7 -20 -20 -20 -13 0 -20 7 -20 20 0 17 -7 20 -46 20 -37 0 -47 4 -51 20 -4
16 -14 20 -43 20 -29 0 -39 -4 -43 -20z"/>
</g>
</svg>
